HIERARCHY
ROOT Hips
{
	OFFSET	0.00	0.00	0.00
	CHANNELS 6 Xposition Yposition Zposition Zrotation Xrotation Yrotation
	JOINT LeftUpLeg
	{
		OFFSET	 0.126116	-0.014019	-0.065224
		CHANNELS 3 Zrotation Xrotation Yrotation
		JOINT LeftLeg
		{
			OFFSET	 0.000000	 0.000000	 0.569914
			CHANNELS 3 Zrotation Xrotation Yrotation
			JOINT LeftFoot
			{
				OFFSET	 0.000000	 0.000000	 0.544423
				CHANNELS 3 Zrotation Xrotation Yrotation
				JOINT LeftToeBase
				{
					OFFSET	 0.000000	 0.000000	 0.207117
					CHANNELS 3 Zrotation Xrotation Yrotation
					End Site
					{
						OFFSET	 0.000000	 0.000000	 0.207117
					}
				}
			}
		}
	}
	JOINT RightUpLeg
	{
		OFFSET	-0.124023	-0.008373	-0.065224
		CHANNELS 3 Zrotation Xrotation Yrotation
		JOINT RightLeg
		{
			OFFSET	 0.000000	 0.000000	 0.570047
			CHANNELS 3 Zrotation Xrotation Yrotation
			JOINT RightFoot
			{
				OFFSET	 0.000000	 0.000000	 0.544354
				CHANNELS 3 Zrotation Xrotation Yrotation
				JOINT RightToeBase
				{
					OFFSET	 0.000000	 0.000000	 0.207540
					CHANNELS 3 Zrotation Xrotation Yrotation
					End Site
					{
						OFFSET	 0.000000	 0.000000	 0.207540
					}
				}
			}
		}
	}
	JOINT Spine
	{
		OFFSET	 0.000184	-0.007763	 0.117403
		CHANNELS 3 Zrotation Xrotation Yrotation
		JOINT Spine1
		{
			OFFSET	 0.000000	 0.000000	 0.137269
			CHANNELS 3 Zrotation Xrotation Yrotation
			JOINT Spine2
			{
				OFFSET	 0.000000	 0.000000	 0.156879
				CHANNELS 3 Zrotation Xrotation Yrotation
				JOINT LeftShoulder
				{
					OFFSET	 0.080501	-0.002496	 0.160144
					CHANNELS 3 Zrotation Xrotation Yrotation
					JOINT LeftArm
					{
						OFFSET	 0.000000	 0.000000	 0.164363
						CHANNELS 3 Zrotation Xrotation Yrotation
						JOINT LeftForeArm
						{
							OFFSET	 0.000000	 0.000000	 0.364576
							CHANNELS 3 Zrotation Xrotation Yrotation
							JOINT LeftHand
							{
								OFFSET	 0.000000	 0.000000	 0.360812
								CHANNELS 3 Zrotation Xrotation Yrotation
								JOINT LeftHandIndex1
								{
									OFFSET	 0.000000	 0.000000	 0.086006
									CHANNELS 3 Zrotation Xrotation Yrotation
									JOINT LeftHandIndex2
									{
										OFFSET	 0.000000	 0.000000	 0.047237
										CHANNELS 3 Zrotation Xrotation Yrotation
										JOINT LeftHandIndex3
										{
											OFFSET	-0.004284	-0.000551	 0.038165
											CHANNELS 3 Zrotation Xrotation Yrotation
											End Site
											{
												OFFSET	-0.004284	-0.000551	 0.038165
											}
										}
									}
								}
							}
						}
					}
				}
				JOINT Neck
				{
					OFFSET	 0.000000	 0.000000	 0.176489
					CHANNELS 3 Zrotation Xrotation Yrotation
					JOINT Head
					{
						OFFSET	 0.000000	-0.001747	 0.077940
						CHANNELS 3 Zrotation Xrotation Yrotation
						End Site
						{
							OFFSET	 0.000000	-0.001747	 0.077940
						}
					}
				}
				JOINT RightShoulder
				{
					OFFSET	-0.080363	 0.000306	 0.159706
					CHANNELS 3 Zrotation Xrotation Yrotation
					JOINT RightArm
					{
						OFFSET	 0.000000	 0.000000	 0.164196
						CHANNELS 3 Zrotation Xrotation Yrotation
						JOINT RightForeArm
						{
							OFFSET	 0.000000	 0.000000	 0.365611
							CHANNELS 3 Zrotation Xrotation Yrotation
							JOINT RightHand
							{
								OFFSET	 0.000000	 0.000000	 0.360648
								CHANNELS 3 Zrotation Xrotation Yrotation
								JOINT RightHandIndex1
								{
									OFFSET	 0.000000	 0.000000	 0.069977
									CHANNELS 3 Zrotation Xrotation Yrotation
									JOINT RightHandIndex2
									{
										OFFSET	 0.000000	 0.000000	 0.052305
										CHANNELS 3 Zrotation Xrotation Yrotation
										JOINT RightHandIndex3
										{
											OFFSET	 0.009002	-0.000782	 0.042196
											CHANNELS 3 Zrotation Xrotation Yrotation
											End Site
											{
												OFFSET	 0.009002	-0.000782	 0.042196
											}
										}
									}
								}
							}
						}
					}
				}
			}
		}
	}
}
MOTION
Frames:    8
Frame Time: 0.03333334
-0.021074	-1.166595	 1.276456	-179.753600	 1.080233	 0.135239	-0.525005	-1.130617	-179.603900	 8.284601	-8.731747	 1.309832	-9.163233	 69.966390	 5.264759	-2.385833	 28.452750	 0.000004	 11.335240	-3.350678	 178.437500	-9.269938	-12.460810	-1.867378	 23.874690	 71.642580	-8.156549	 2.384659	 28.388700	-0.000001	-9.763506	 0.102143	-2.474035	-5.103502	 10.067960	 13.764800	 11.312360	-16.767300	-11.307160	-96.856090	 86.735770	-170.910300	 13.654290	 6.496797	-1.218656	 27.090050	-7.224750	-8.621741	-49.114120	-19.322380	-3.370004	-2.482367	 5.116409	 7.306710	-5.213519	-0.193819	 3.566523	-1.378229	 35.397820	-2.634230	-0.000002	-3.783157	-0.089647	 4.647823	 9.113689	-0.370633	 104.097500	 88.275120	 160.879200	-13.168460	 3.086430	 0.834066	-8.120205	-11.808290	 18.810500	 42.070180	-1.766196	 21.959640	 3.315085	 2.709404	-9.595282	 5.070817	-0.697411	-9.399697	-2.350882	 35.473990	 5.254307
-0.017903	-1.166837	 1.275569	 179.575200	 6.821971	 0.217912	 9.171940	-8.707143	-179.433200	 0.873317	-12.181140	 0.243537	 9.335273	 67.962170	-7.379556	-2.385972	 28.420520	 0.000696	 5.220901	-9.570482	 179.077300	-2.031452	-13.013370	-0.304935	 4.585679	 68.927120	 4.956015	 2.406693	 19.810940	-0.176852	-9.972260	 2.328092	 1.104073	-7.305236	-15.807150	 5.501964	 18.637670	 7.876916	-15.635170	-96.855940	 86.735770	-170.910400	-12.590000	 13.320070	 5.498018	-5.324286	-2.639822	-19.886130	 0.081154	-19.654280	-5.429091	-3.778584	-8.946480	 3.009750	-5.213519	-0.193819	 3.566523	-1.378229	 35.397820	-2.634230	 0.479271	-1.252692	 1.155048	 5.341335	 15.180020	-1.208719	 104.097800	 88.275010	 160.879000	-2.012314	 2.071961	 0.587870	 2.557093	-8.520073	 21.806610	-26.295180	 44.180870	 87.415820	-5.528407	-2.943784	-33.059200	 5.070817	-0.697411	-9.399697	-2.350882	 35.473990	 5.254307
-0.016910	-1.167026	 1.275971	 179.446300	 8.428391	 0.533135	 11.892480	-10.998250	-179.377900	-0.557983	-13.404080	-0.064268	 15.061850	 67.971260	-12.328590	-2.385951	 28.426210	 0.000578	 3.649578	-11.404640	 178.778900	-0.659934	-13.319380	 0.004040	-1.948098	 68.666020	 10.755050	 2.407680	 17.311740	-0.225982	-10.020420	 1.583023	 1.903636	-9.014377	-19.634900	 2.659637	 20.777100	 13.017010	-16.663760	-96.856080	 86.735770	-170.910300	-22.382380	 16.218230	 10.517350	-1.549087	-5.462089	-26.024530	 1.509232	-21.604990	-5.244150	-4.270586	-12.686380	 1.881428	-5.213519	-0.193819	 3.566523	-1.378229	 35.397820	-2.634230	 0.608273	-0.509631	 1.516254	 5.560106	 16.735770	-1.503847	 104.097900	 88.274890	 160.878800	 2.389482	 3.574671	-1.413574	-4.582156	-14.090280	 25.102760	-29.442050	 49.537430	 98.761800	-8.088815	-3.664399	-39.229690	 5.070817	-0.697411	-9.399697	-2.350882	 35.473990	 5.254307
-0.017034	-1.167312	 1.275798	 179.466000	 8.356701	 0.516408	 11.887170	-11.408370	-179.450600	-0.555701	-14.425310	-0.068493	 15.204940	 68.738730	-12.439610	-2.385815	 28.455960	-0.000066	 3.674400	-11.894840	 178.858900	-0.653861	-14.547620	 0.005932	-1.877680	 69.570880	 10.662400	 2.407686	 17.339740	-0.225434	-10.031580	 1.831219	 1.842704	-8.861019	-19.262010	 2.989451	 20.614740	 12.566410	-16.656330	-96.855850	 86.735710	-170.910500	-21.250800	 18.002300	 13.506010	-2.256875	-6.683205	-32.573930	 1.728671	-21.517070	-5.279189	-4.144284	-12.564000	 2.168223	-5.213519	-0.193819	 3.566523	-1.378229	 35.397820	-2.634230	 0.606621	-0.513872	 1.525807	 5.548692	 16.619590	-1.499499	 104.097500	 88.274890	 160.879200	 2.453269	 6.105937	-4.247326	-2.390226	-16.957900	 31.714680	-26.459240	 51.743400	 93.842250	-7.956611	-3.586004	-38.953500	 5.070817	-0.697411	-9.399697	-2.350882	 35.473990	 5.254307
-0.017391	-1.167934	 1.275353	 179.538100	 7.968022	 0.444146	 11.812500	-11.902360	-179.621100	-0.517784	-16.335340	-0.066668	 15.350790	 70.901960	-12.430250	-2.385685	 28.485800	-0.000713	 3.788909	-12.565210	 179.061400	-0.684250	-16.920500	-0.001971	-1.621085	 72.025580	 10.395070	 2.407689	 17.365960	-0.224927	-10.057230	 2.437381	 1.631198	-8.338801	-17.920880	 4.066280	 20.040270	 11.071390	-16.574060	-96.856050	 86.735650	-170.910400	-17.481490	 21.377530	 17.622820	-3.594457	-8.507476	-43.091610	 2.633000	-21.133760	-5.404931	-3.996885	-11.834650	 2.500257	-5.213519	-0.193819	 3.566523	-1.378229	 35.397820	-2.634230	 0.604549	-0.516843	 1.537098	 5.491745	 16.145950	-1.430246	 104.097100	 88.275010	 160.879600	 1.945320	 10.893000	-8.607757	 2.860137	-20.039900	 43.248730	-19.748140	 53.537050	 82.004980	-7.363473	-3.384981	-37.579330	 5.070817	-0.697411	-9.399697	-2.350882	 35.473990	 5.254307
-0.017506	-1.168356	 1.275116	 179.537800	 7.975254	 0.433412	 11.813250	-12.476060	-179.718200	-0.523141	-17.536210	-0.073036	 15.562830	 71.519020	-12.639080	-2.385722	 28.478160	-0.000547	 3.805543	-13.198960	 179.172900	-0.683122	-18.298190	-0.001775	-1.378724	 72.770160	 10.119180	 2.407680	 17.354100	-0.225157	-10.074160	 2.664020	 1.602248	-8.233487	-17.505220	 4.358579	 19.946030	 10.700650	-16.620030	-96.856060	 86.735770	-170.910300	-16.514040	 23.762610	 19.954280	-4.483006	-9.339391	-48.758010	 2.655345	-21.155730	-5.410303	-3.946928	-11.896650	 2.616256	-5.213519	-0.193819	 3.566523	-1.378229	 35.397820	-2.634230	 0.604015	-0.512749	 1.538927	 5.490280	 16.133830	-1.418094	 104.097700	 88.275010	 160.879100	 2.288586	 13.942730	-10.795080	 5.060851	-21.970410	 49.338580	-16.586570	 54.449370	 76.742550	-7.366672	-3.368474	-37.600630	 5.070817	-0.697411	-9.399697	-2.350882	 35.473990	 5.254307
-0.017738	-1.169218	 1.274647	 179.536000	 7.982172	 0.415254	 11.803120	-13.515060	-179.923000	-0.532575	-19.731760	-0.085026	 15.928350	 72.661770	-12.989280	-2.385771	 28.466020	-0.000282	 3.845569	-14.331560	 179.400100	-0.681273	-20.797040	-0.001352	-0.802791	 74.134010	 9.471301	 2.407686	 17.335230	-0.225521	-10.109000	 3.090929	 1.535150	-8.011109	-16.579510	 4.974327	 19.743410	 9.916686	-16.713470	-96.855780	 86.735770	-170.910600	-14.254380	 28.547130	 23.202630	-6.094576	-10.492980	-58.024740	 2.693761	-21.197550	-5.419634	-3.866992	-12.001830	 2.801379	-5.213519	-0.193819	 3.566523	-1.378229	 35.397820	-2.634230	 0.603159	-0.506232	 1.541872	 5.487908	 16.114930	-1.398800	 104.097600	 88.275240	 160.879200	 2.891606	 19.970190	-14.132340	 9.172725	-24.618660	 59.657600	-11.478870	 54.935960	 67.248990	-7.371387	-3.346280	-37.630350	 5.070817	-0.697411	-9.399697	-2.350882	 35.473990	 5.254307
-0.018004	-1.170213	 1.274140	 179.531400	 7.984878	 0.407289	 11.775210	-14.567780	 179.822600	-0.541880	-21.972050	-0.097704	 16.245700	 73.845840	-13.275880	-2.385792	 28.461200	-0.000182	 3.893834	-15.453500	 179.654900	-0.677749	-23.313240	-0.000113	-0.022849	 75.522810	 8.603567	 2.407689	 17.342680	-0.225380	-10.151050	 3.518800	 1.435736	-7.741386	-15.364450	 5.715291	 19.484330	 8.941646	-16.812940	-96.855950	 86.735830	-170.910400	-11.023860	 34.044750	 24.872000	-7.640506	-11.246930	-66.098630	 2.704223	-21.243020	-5.429701	-3.799109	-12.103330	 2.958075	-5.213519	-0.193819	 3.566523	-1.378229	 35.397820	-2.634230	 0.602540	-0.510728	 1.544574	 5.486602	 16.101860	-1.392941	 104.097400	 88.275120	 160.879400	 3.334422	 26.888440	-16.645080	 13.215380	-26.334560	 69.006420	-7.926974	 53.996560	 58.350720	-7.375196	-3.330421	-37.652740	 5.070817	-0.697411	-9.399697	-2.350882	 35.473990	 5.254307
